<svg t="1733384595810" class="icon" viewBox="0 0 1024 1024" version="1.1" xmlns="http://www.w3.org/2000/svg" p-id="6302" width="200" height="200">
    <path d="M862.1056 833.71008a42.57792 42.57792 0 0 0 40.27392-48.19968l-16.1792-88.12544a80.87552 80.87552 0 0 0-75.264-64.36864H617.18528l-15.85152-99.0208a236.01152 236.01152 0 0 0 148.21376-221.82912 240.96768 240.96768 0 1 0-481.59744 0 236.3392 236.3392 0 0 0 148.54144 220.49792l-11.8784 99.0208H211.82464a77.568 77.568 0 0 0-76.24704 64.37888l-16.1792 88.12544a37.95968 37.95968 0 0 0 36.31104 48.19968l706.38592 1.32096z" fill="#36CFC9" p-id="6303"></path>
    <path d="M167.2704 863.41632H860.4672a49.5104 49.5104 0 1 1 0 99.0208H167.2704a49.5104 49.5104 0 1 1 0-99.0208z" fill="#08979C" p-id="6304"></path>
    <path d="M637.6448 277.504a33.00352 33.00352 0 1 0 66.01728 0 33.00352 33.00352 0 0 0-66.01728 0zM533.34016 144.81408a177.92 177.92 0 0 1 56.1152 28.7232 165.03808 165.03808 0 0 1 33.00352 47.86176 25.088 25.088 0 0 0 44.2368-23.11168 221.81888 221.81888 0 0 0-46.21312-62.0544 216.20736 216.20736 0 0 0-72.2944-38.2976 24.79104 24.79104 0 0 0-16.1792 46.87872h1.3312z" fill="#B5F5EC" p-id="6305"></path>
</svg>