<svg t="1733382972120" class="icon" viewBox="0 0 1024 1024" version="1.1" xmlns="http://www.w3.org/2000/svg" p-id="1157" width="200" height="200">
    <path d="M515.584 513.6896m-436.2752 0a436.2752 436.2752 0 1 0 872.5504 0 436.2752 436.2752 0 1 0-872.5504 0Z" fill="#FFCFF1" p-id="1158"></path>
    <path d="M481.536 391.0144a134.4512 134.4512 0 1 0-190.4128 122.2144v213.4016a55.9616 55.9616 0 0 0 111.872 0v-213.4016a134.3488 134.3488 0 0 0 78.5408-122.2144z" fill="#F374C7" p-id="1159"></path>
    <path d="M291.1232 513.2288v213.4016a55.9616 55.9616 0 0 0 111.872 0v-213.4016a134.3488 134.3488 0 0 0 36.4544-219.8528 434.5856 434.5856 0 0 0-225.6384 114.6368 134.3488 134.3488 0 0 0 77.312 105.216z" fill="#F064BA" p-id="1160"></path>
    <path d="M740.8128 524.3392v-251.392c0-20.992-22.9888-35.4304-44.3392-27.8016l-132.1472 47.0528a29.952 29.952 0 0 0-20.48 27.8016v204.3392a42.5472 42.5472 0 0 0-33.8944 41.6256v179.9168a42.5472 42.5472 0 0 0 42.5472 42.5472H732.16a42.5984 42.5984 0 0 0 42.5472-42.5472v-179.9168a42.5472 42.5472 0 0 0-33.8944-41.6256z" fill="#F374C7" p-id="1161"></path>
    <path d="M570.112 290.0992l-5.7856 2.0992a29.952 29.952 0 0 0-20.48 27.8016v204.3392a42.5472 42.5472 0 0 0-33.8944 41.6256v179.9168a42.5472 42.5472 0 0 0 42.5472 42.5472H732.16a42.5984 42.5984 0 0 0 42.5472-42.5472v-179.9168a42.5472 42.5472 0 0 0-33.8944-41.6256V349.184a433.408 433.408 0 0 0-170.7008-59.0848z" fill="#F064BA" p-id="1162"></path>
    <path d="M291.1232 513.2288v213.4016a55.9616 55.9616 0 0 0 111.872 0v-213.4016a134.3488 134.3488 0 0 0 78.5408-122.2144 132.7104 132.7104 0 0 0-1.1264-16.9472 434.3296 434.3296 0 0 0-241.152 97.28 135.1168 135.1168 0 0 0 51.8656 41.8816zM543.5904 373.76v150.8352a42.5472 42.5472 0 0 0-33.8944 41.6256v179.9168a42.5472 42.5472 0 0 0 42.5472 42.5472H732.16a42.5984 42.5984 0 0 0 42.5472-42.5472v-180.1728a42.5472 42.5472 0 0 0-33.8944-41.6256V435.2a433.8688 433.8688 0 0 0-197.2224-61.44z" fill="#EE4FA8" p-id="1163"></path>
    <path d="M291.1232 520.6016v206.0288a55.9616 55.9616 0 0 0 111.872 0v-213.4016a134.7584 134.7584 0 0 0 58.1632-51.2 434.1248 434.1248 0 0 0-170.0352 58.5728zM543.5904 459.4688v64.8704a42.5472 42.5472 0 0 0-33.8944 41.6256v179.9168a42.5472 42.5472 0 0 0 42.5472 42.5472H732.16a42.5984 42.5984 0 0 0 42.5472-42.5472v-179.9168a42.5472 42.5472 0 0 0-33.8944-41.6256v-3.2768a433.8688 433.8688 0 0 0-197.2224-61.5936z" fill="#EB3C99" p-id="1164"></path>
    <path d="M291.1232 606.5664v120.064a55.9616 55.9616 0 0 0 111.872 0v-167.4752a434.1248 434.1248 0 0 0-111.872 47.4112zM515.584 544.4096a42.24 42.24 0 0 0-5.888 21.5552v179.9168a42.5472 42.5472 0 0 0 42.5472 42.5472H732.16a42.5984 42.5984 0 0 0 42.5472-42.5472V629.76a434.2784 434.2784 0 0 0-259.1232-85.3504z" fill="#E92385" p-id="1165"></path>
    <path d="M710.656 637.0816h-139.8272a30.72 30.72 0 0 1 0-61.44h139.8272a30.72 30.72 0 0 1 0 61.44z" fill="#FFFFFF" p-id="1166"></path>
</svg>