<svg t="1733383570724" class="icon" viewBox="0 0 1024 1024" version="1.1" xmlns="http://www.w3.org/2000/svg" p-id="1369" width="200" height="200">
<path d="M897.024 328.362667l-538.453333 538.453333a209.322667 209.322667 0 0 1-127.573334 60.16l-122.453333 11.52a20.906667 20.906667 0 0 1-23.04-23.04l11.52-122.453333a209.322667 209.322667 0 0 1 60.16-127.573334l538.453333-538.453333a142.421333 142.421333 0 0 1 201.386667 201.386667z" fill="#FFB531" p-id="1370"></path>
<path d="M812.544 256.682667l-74.24 73.813333a30.293333 30.293333 0 0 1-22.613333 9.386667 31.658667 31.658667 0 0 1-22.613334-9.386667 32.170667 32.170667 0 0 1 0-45.226667l74.24-73.813333a32 32 0 0 1 45.226667 45.226667z" fill="#030835" p-id="1371"></path>
</svg>