<svg t="1733384153642" class="icon" viewBox="0 0 1024 1024" version="1.1" xmlns="http://www.w3.org/2000/svg" p-id="1111" width="200" height="200">
    <path d="M72 425.18c11.05 0 20-8.95 20-20V152.89c0-33.08 26.92-60 60-60h253.35c11.05 0 20-8.95 20-20s-8.95-20-20-20H152c-55.14 0-100 44.86-100 100v252.29c0 11.04 8.95 20 20 20zM403.84 932.89H152c-33.08 0-60-26.92-60-60V619.66c0-11.05-8.95-20-20-20s-20 8.95-20 20v253.23c0 55.14 44.86 100 100 100h251.84c11.05 0 20-8.95 20-20s-8.96-20-20-20zM952 599.66c-11.05 0-20 8.95-20 20v253.23c0 33.08-26.92 60-60 60H619.08c-11.05 0-20 8.95-20 20s8.95 20 20 20H872c55.14 0 100-44.86 100-100V619.66c0-11.05-8.95-20-20-20zM872 52.89H619.08c-11.05 0-20 8.95-20 20s8.95 20 20 20H872c33.08 0 60 26.92 60 60v252.29c0 11.05 8.95 20 20 20s20-8.95 20-20V152.89c0-55.14-44.86-100-100-100zM162 512.89c0 11.05 8.95 20 20 20h660c11.05 0 20-8.95 20-20s-8.95-20-20-20H182c-11.05 0-20 8.95-20 20z" fill="#333333" p-id="1112"></path>
    <path d="M862 242.84c0-43.97-35.98-79.95-79.95-79.95h-540.1c-43.97 0-79.95 35.98-79.95 79.95v99h700v-99z" fill="#F2FFF5" p-id="1113"></path>
    <path d="M162 341.84h700v151.05H162zM162 532.89h700v151.05H162z" fill="#D8FFE2" p-id="1114"></path>
    <path d="M241.95 862.89h540.1c43.97 0 79.95-35.98 79.95-79.95v-99H162v99c0 43.97 35.98 79.95 79.95 79.95z" fill="#ADFCC2" p-id="1115"></path>
</svg>